<svg t="1695871628864" class="icon" viewBox="0 0 1024 1024" version="1.1" xmlns="http://www.w3.org/2000/svg" p-id="3106" width="200" height="200"><path d="M248.7808 640.1536h145.8688V251.8016H248.7808c-58.112 0-105.216 47.104-105.216 105.216v177.92c0 58.112 47.104 105.216 105.216 105.216zM788.0192 310.8352v258.5088c71.3728 0 129.2288-57.856 129.2288-129.2288 0.0512-71.424-57.856-129.28-129.2288-129.28z" fill="#ffa115" p-id="3107"></path><path d="M948.0192 440.064c0-77.7216-55.7056-142.592-129.2288-156.9792V144.128c0-27.648-13.824-53.0944-36.9664-68.1984a81.18784 81.18784 0 0 0-77.312-6.2464L393.7792 207.0528h-148.992c-77.6192 0-140.7488 63.1296-140.7488 140.7488v185.9072c0 61.4912 39.6288 113.8688 94.72 132.9664v217.856c0 49.92 40.6528 90.5728 90.5728 90.5728h8.96c49.92 0 90.5728-40.6528 90.5728-90.5728v-210.0736h4.7104l309.8112 142.5408c10.9056 5.0176 22.528 7.4752 34.048 7.4752 15.3088 0 30.464-4.352 43.8272-12.9024 23.4496-15.0528 37.4784-40.6528 37.4784-68.5056V596.992c73.5744-14.336 129.28-79.2064 129.28-156.928zM165.4784 533.7088V347.8016c0-43.7248 35.584-79.3088 79.3088-79.3088h119.1424v344.064c-1.8944-0.3584-3.84-0.5632-5.7856-0.5632H232.2944c-37.7856-6.0416-66.816-38.8096-66.816-78.2848z m161.9456 350.8736c0 16.0768-13.056 29.1328-29.1328 29.1328h-8.96c-16.0768 0-29.1328-13.056-29.1328-29.1328v-210.0736h67.2256v210.0736z m429.8752-141.4656c0 9.8304-6.4 15.0016-9.1648 16.7936-2.7648 1.792-10.1376 5.4272-19.0976 1.3312l-303.6672-139.7248V260.2496l303.9232-134.3488c8.96-3.9424 16.2304-0.256 18.944 1.536 2.7136 1.792 9.0624 6.9632 9.0624 16.6912v598.9888z m61.44-209.408V346.4192c39.3216 12.9536 67.7888 50.0224 67.7888 93.6448s-28.4672 80.6912-67.7888 93.6448z" fill="#474A54" p-id="3108"></path></svg>