<svg t="1696310570288" class="icon" viewBox="0 0 1024 1024" version="1.1" xmlns="http://www.w3.org/2000/svg" p-id="7880" width="200" height="200"><path d="M694.852 660.912l-0.12-1.885c-0.46-2.021-3.911-14.235-7.67-27.14L559.658 194.475c-3.758-12.904-7.767-27.232-8.91-31.84l-1.672-3.723c-9.188-20.93-29.88-34.463-52.72-34.463-11.098 0-21.91 3.223-31.408 9.332l-3.364 2.22c-3.386 3.084-14.559 12.707-24.827 21.38L286.914 283.997c-10.27 8.676-29.568 17.246-42.888 19.048 0 0-3.49 0.472-16.473 4.266-54.678 15.919-99.857 52.171-127.255 102.075-27.398 49.928-33.722 107.517-17.803 162.17 15.918 54.678 52.171 99.857 102.076 127.255 8.24 4.526 16.7 8.425 25.307 11.795 0.268 0.127 0.433 0.37 0.707 0.488 114.009 48.926 181.55 228.59 182.218 230.404 3.651 9.856 13.007 15.967 22.936 15.967 2.816 0 5.68-0.502 8.473-1.528 12.649-4.654 19.116-18.711 14.462-31.36-2.333-6.305-45.966-122.04-126.759-201.14 11.665-1.395 23.3-3.47 34.803-6.822 13.865-4.01 19.099-6.498 19.099-6.498 12.138-5.772 33.025-9.534 46.414-8.362l202.67 17.762c13.39 1.173 26.084 2.187 28.21 2.253l1.885-0.287c28.974-4.367 50-28.734 50-57.97-0.002-0.43-0.12-2.173-0.144-2.601z m-351.095 5.684l-10.668 3.099c-42.148 12.267-86.514 7.375-124.986-13.723-38.473-21.121-66.42-55.942-78.686-98.065-12.268-42.148-7.399-86.54 13.722-124.987 21.121-38.472 55.942-66.42 98.066-78.686l9.925-2.885c11.831-1.45 24.662 7.898 28.51 20.777l77.936 260.836c3.848 12.876-2.369 28.012-13.819 33.634z m298.732 4.088c-1.522 1.07-13.723 0.985-27.112-0.19L412.724 652.73c-13.389-1.174-27.494-12.671-31.342-25.55l-78.65-263.22c-3.849-12.879 1.402-30.515 11.67-39.19l154.841-130.847c10.266-8.676 19.347-16.381 20.182-17.122 0.835-0.741 3.556-2.672 5.263-3.472h1.67c4.201 0 6.922 2.84 8.02 5.298 0.12 0.287 0.334 0.907 0.524 1.981l0.144 0.955c0.274 1.037 3.576 12.445 7.333 25.348l126.717 435.073c3.754 12.903 4.915 27.632 3.393 28.701zM741.821 66.535l23.332 12.121-93.326 121.203zM740.714 346.491L948.74 241.054l-5.805 31.99zM933.574 590.88L769.88 503.499l166.345 48.645z" p-id="7881"></path></svg>