<svg t="1696308973227" class="icon" viewBox="0 0 1024 1024" version="1.1" xmlns="http://www.w3.org/2000/svg" p-id="4980" width="200" height="200"><path d="M243.2 170.666667v64h-85.333333c-12.8 0-21.333333 8.533333-21.333334 21.333333v682.666667c0 12.8 8.533333 21.333333 21.333334 21.333333h682.666666c12.8 0 21.333333-8.533333 21.333334-21.333333V256c0-12.8-8.533333-21.333333-21.333334-21.333333h-85.333333V170.666667h85.333333c46.933333 0 85.333333 38.4 85.333334 85.333333v682.666667c0 46.933333-38.4 85.333333-85.333334 85.333333h-682.666666c-46.933333 0-85.333333-38.4-85.333334-85.333333V256c0-46.933333 38.4-85.333333 85.333334-85.333333h85.333333z" fill="#444444" p-id="4981"></path><path d="M328.533333 469.333333h341.333334c25.6 0 42.666667 17.066667 42.666666 42.666667s-17.066667 42.666667-42.666666 42.666667h-341.333334c-25.6 0-42.666667-17.066667-42.666666-42.666667s17.066667-42.666667 42.666666-42.666667z m0 170.666667h341.333334c25.6 0 42.666667 17.066667 42.666666 42.666667s-17.066667 42.666667-42.666666 42.666666h-341.333334c-25.6 0-42.666667-17.066667-42.666666-42.666666s17.066667-42.666667 42.666666-42.666667z" fill="#444444" p-id="4982"></path><path d="M691.2 85.333333h-29.866667C644.266667 34.133333 597.333333 0 541.866667 0h-85.333334C401.066667 0 349.866667 34.133333 332.8 85.333333h-25.6C247.466667 85.333333 200.533333 132.266667 200.533333 192S247.466667 298.666667 307.2 298.666667h384c59.733333 0 106.666667-46.933333 106.666667-106.666667S746.666667 85.333333 691.2 85.333333z m0 149.333334h-384c-25.6 0-42.666667-17.066667-42.666667-42.666667s17.066667-42.666667 42.666667-42.666667h72.533333l17.066667-42.666666c8.533333-25.6 34.133333-42.666667 59.733333-42.666667h85.333334c25.6 0 51.2 17.066667 59.733333 42.666667l17.066667 42.666666h72.533333c25.6 0 42.666667 17.066667 42.666667 42.666667s-21.333333 42.666667-42.666667 42.666667z" fill="#444444" p-id="4983"></path></svg>