<svg t="1692252658745" class="icon" viewBox="0 0 1024 1024" version="1.1" xmlns="http://www.w3.org/2000/svg"
     p-id="10512" width="200" height="200">
    <path d="M298.688 170.688h42.688v42.688h-42.688z" p-id="10513"></path>
    <path d="M341.312 170.688H384v42.688h-42.688z" fill="#FFF100" p-id="10514"></path>
    <path d="M384 170.688h42.688v42.688H384zM426.688 170.688h42.688v42.688h-42.688z" fill="#E50046" p-id="10515"></path>
    <path d="M469.312 170.688H512v42.688h-42.688z" fill="#E50046" p-id="10516"></path>
    <path d="M298.688 213.312h42.688V256h-42.688z" p-id="10517"></path>
    <path d="M341.312 213.312H384V256h-42.688zM384 213.312h42.688V256H384zM426.688 213.312h42.688V256h-42.688z"
          fill="#E50046" p-id="10518" data-spm-anchor-id="a313x.collections_detail.0.i1.71533a81P8FZT6"></path>
    <path d="M469.312 213.312H512V256h-42.688z" fill="#E50046" p-id="10519"></path>
    <path d="M256 256h42.688v42.688H256z" p-id="10520"></path>
    <path d="M298.688 256h42.688v42.688h-42.688z" fill="#E50046" p-id="10521"></path>
    <path d="M341.312 256H384v42.688h-42.688zM384 256h42.688v42.688H384z" fill="#E50046" p-id="10522"></path>
    <path d="M426.688 256h42.688v42.688h-42.688z" fill="#FFF100" p-id="10523"></path>
    <path d="M469.312 256H512v42.688h-42.688z" fill="#FFF100" p-id="10524"></path>
    <path d="M256 298.688h42.688v42.688H256z" p-id="10525"></path>
    <path d="M298.688 298.688h42.688v42.688h-42.688z" fill="#E50046" p-id="10526"></path>
    <path d="M341.312 298.688H384v42.688h-42.688zM384 298.688h42.688v42.688H384z" fill="#E50046" p-id="10527"></path>
    <path d="M426.688 298.688h42.688v42.688h-42.688z" fill="#FFF100" p-id="10528"></path>
    <path d="M469.312 298.688H512v42.688h-42.688z" fill="#FFF100" p-id="10529"></path>
    <path d="M512 170.688h42.688v42.688H512z" fill="#E50046" p-id="10530"></path>
    <path d="M512 213.312h42.688V256H512zM512 256h42.688v42.688H512zM512 298.688h42.688v42.688H512z" fill="#FFF100"
          p-id="10531"></path>
    <path d="M554.688 170.688h42.688v42.688h-42.688z" fill="#E50046" p-id="10532"></path>
    <path d="M554.688 213.312h42.688V256h-42.688zM554.688 256h42.688v42.688h-42.688z" fill="#FFF100"
          p-id="10533"></path>
    <path d="M554.688 298.688h42.688v42.688h-42.688zM597.312 170.688H640v42.624h-42.688z" fill="#E50046"
          p-id="10534"></path>
    <path d="M597.312 213.312H640V256h-42.688zM597.312 256H640v42.688h-42.688z" fill="#FFF100" p-id="10535"></path>
    <path d="M597.312 298.688H640v42.688h-42.688z" fill="#E50046" p-id="10536"></path>
    <path d="M640 213.312h42.688V256H640zM640 256h42.688v42.688H640zM682.688 213.312h42.624V256h-42.624z" fill="#FFF100"
          p-id="10537"></path>
    <path d="M640 170.688h42.688v42.624H640zM682.688 170.688h42.688v42.624h-42.688z" fill="#E50046" p-id="10538"></path>
    <path d="M725.312 170.688H768v42.624h-42.688z" fill="#E50046" p-id="10539"></path>
    <path d="M426.688 42.688h42.688v42.688h-42.688z" p-id="10540"></path>
    <path d="M469.312 42.688H512v42.688h-42.688zM384 85.312h42.688V128H384z" p-id="10541"></path>
    <path d="M426.688 85.312h42.688V128h-42.688z" fill="#FFF100" p-id="10542"></path>
    <path d="M469.312 85.312H512V128h-42.688zM512 42.688h42.688v42.688H512z" fill="#FFF100" p-id="10543"></path>
    <path d="M512 85.312h42.688V128H512zM554.688 42.688h42.688v42.688h-42.688z" fill="#FFF100" p-id="10544"></path>
    <path d="M554.688 85.312h42.688V128h-42.688z" fill="#FFF100" p-id="10545"></path>
    <path d="M597.312 42.688H640v42.688h-42.688z" fill="#FFF100" p-id="10546"></path>
    <path d="M597.312 85.312H640V128h-42.688zM640 42.688h42.688v42.688H640z" fill="#FFF100" p-id="10547"></path>
    <path d="M640 85.312h42.688V128H640zM682.688 42.688h42.688v42.688h-42.688z" fill="#FFF100" p-id="10548"></path>
    <path d="M682.688 85.312h42.688V128h-42.688z" fill="#FFF100" p-id="10549"></path>
    <path d="M725.312 42.688H768v42.688h-42.688z" fill="#FFF100" p-id="10550"></path>
    <path d="M725.312 85.312H768V128h-42.688z" fill="#FFF100" p-id="10551"></path>
    <path d="M768 42.688h42.688v42.688H768z" p-id="10552"></path>
    <path d="M768 85.312h42.688V128H768zM682.688 298.688h42.688v42.688h-42.688zM725.312 256H768v42.688h-42.688z"
          fill="#FFF100" p-id="10553"></path>
    <path d="M725.312 298.688H768v42.688h-42.688z" fill="#FFF100" p-id="10554"></path>
    <path d="M768 213.312h42.688V256H768zM768 256h42.688v42.688H768zM768 298.688h42.688v42.688H768z" fill="#E50046"
          p-id="10555"></path>
    <path d="M810.688 170.688h42.688v42.688h-42.688z" fill="#FFF100" p-id="10556"></path>
    <path d="M810.688 213.312h42.688V256h-42.688z" fill="#FFF100" p-id="10557"></path>
    <path d="M810.688 256h42.688v42.688h-42.688zM810.688 298.688h42.688v42.688h-42.688z" fill="#E50046"
          p-id="10558"></path>
    <path d="M853.312 213.312H896V256h-42.688zM853.312 256H896v42.688h-42.688zM853.312 298.688H896v42.688h-42.688zM896 256h42.688v42.688H896zM896 298.688h42.688v42.688H896z"
          fill="#FFF100" p-id="10559"></path>
    <path d="M938.624 298.688h42.688v42.688h-42.688z" fill="#E50046" p-id="10560"></path>
    <path d="M682.688 384h42.688v42.688h-42.688zM682.688 426.688h42.688v42.688h-42.688z" fill="#FFF100"
          p-id="10561"></path>
    <path d="M682.688 469.312h42.688V512h-42.688zM725.312 384H768v42.688h-42.688z" fill="#FFF100" p-id="10562"
          data-spm-anchor-id="a313x.collections_detail.0.i6.71533a81P8FZT6" class="selected"></path>
    <path d="M725.312 426.688H768v42.688h-42.688z" fill="#FFF100" p-id="10563"></path>
    <path d="M725.312 469.312H768V512h-42.688zM682.688 512h42.688v42.688h-42.688z" fill="#E50046" p-id="10564"></path>
    <path d="M725.312 512H768v42.688h-42.688zM768 384h42.688v42.688H768zM768 426.688h42.688v42.688H768z" fill="#E50046"
          p-id="10565"></path>
    <path d="M768 469.312h42.688V512H768z" fill="#E50046" p-id="10566"></path>
    <path d="M768 512h42.688v42.688H768z" fill="#FFF100" p-id="10567"></path>
    <path d="M682.688 554.688h42.688v42.688h-42.688z" fill="#E50046" p-id="10568"></path>
    <path d="M682.688 597.312h42.688V640h-42.688z" fill="#FFF100" p-id="10569"></path>
    <path d="M725.312 554.688H768v42.688h-42.688z" fill="#FFF100" p-id="10570"></path>
    <path d="M725.312 597.312H768V640h-42.688zM682.688 640h42.688v42.688h-42.688z" fill="#FFF100" p-id="10571"></path>
    <path d="M725.312 640H768v42.688h-42.688zM768 554.688h42.688v42.688H768z" fill="#FFF100" p-id="10572"></path>
    <path d="M768 597.312h42.688V640H768z" fill="#FFF100" p-id="10573"></path>
    <path d="M768 640h42.688v42.688H768zM682.688 682.688h42.688v42.688h-42.688z" fill="#E50046" p-id="10574"></path>
    <path d="M725.312 682.688H768v42.688h-42.688z" fill="#E50046" p-id="10575"></path>
    <path d="M768 682.688h42.688v42.688H768zM682.688 725.312h42.688V768h-42.688z" p-id="10576"></path>
    <path d="M725.312 725.312H768V768h-42.688z" p-id="10577"></path>
    <path d="M810.688 384h42.688v42.688h-42.688zM810.688 426.688h42.688v42.688h-42.688z" fill="#E50046"
          p-id="10578"></path>
    <path d="M810.688 469.312h42.688V512h-42.688zM810.688 512h42.688v42.688h-42.688zM810.688 554.688h42.688v42.688h-42.688z"
          fill="#FFF100" p-id="10579"></path>
    <path d="M810.688 597.312h42.688V640h-42.688z" fill="#FFF100" p-id="10580"></path>
    <path d="M810.688 640h42.688v42.688h-42.688z" fill="#E50046" p-id="10581"></path>
    <path d="M810.688 682.688h42.688v42.688h-42.688z" p-id="10582"></path>
    <path d="M853.312 384H896v42.688h-42.688zM853.312 426.688H896v42.688h-42.688z" fill="#FFF100" p-id="10583"></path>
    <path d="M853.312 469.312H896V512h-42.688zM896 384h42.688v42.688H896zM896 426.688h42.688v42.688H896z" fill="#FFF100"
          p-id="10584"></path>
    <path d="M896 469.312h42.688V512H896zM853.312 512H896v42.688h-42.688z" fill="#FFF100" p-id="10585"></path>
    <path d="M896 512h42.688v42.688H896zM938.624 384h42.688v42.688h-42.688zM938.688 426.688h42.688v42.688h-42.688z"
          fill="#E50046" p-id="10586"></path>
    <path d="M938.688 469.312h42.688V512h-42.688z" fill="#E50046" p-id="10587"></path>
    <path d="M938.688 512h42.688v42.688h-42.688z" p-id="10588"></path>
    <path d="M853.312 554.688H896v42.688h-42.688z" fill="#FFF100" p-id="10589"></path>
    <path d="M853.312 597.312H896V640h-42.688zM896 554.688h42.688v42.688H896z" fill="#E50046" p-id="10590"></path>
    <path d="M896 597.312h42.688V640H896zM853.312 640H896v42.688h-42.688zM938.688 554.688h42.688v42.688h-42.688zM256 384h42.688v42.688H256z"
          p-id="10591"></path>
    <path d="M298.688 384h42.688v42.688h-42.688z" fill="#E50046" p-id="10592"></path>
    <path d="M341.312 384H384v42.688h-42.688z" fill="#E50046" p-id="10593"></path>
    <path d="M384 384h42.688v42.688H384zM426.688 384h42.688v42.688h-42.688z" fill="#FFF100" p-id="10594"></path>
    <path d="M469.312 384H512v42.688h-42.688z" fill="#E50046" p-id="10595"
          data-spm-anchor-id="a313x.collections_detail.0.i4.71533a81P8FZT6"></path>
    <path d="M256 426.688h42.688v42.688H256z" p-id="10596"></path>
    <path d="M298.688 426.688h42.688v42.688h-42.688z" fill="#E50046" p-id="10597"></path>
    <path d="M341.312 426.688H384v42.688h-42.688z" fill="#E50046" p-id="10598"></path>
    <path d="M384 426.688h42.688v42.688H384zM426.688 426.688h42.688v42.688h-42.688z" fill="#FFF100" p-id="10599"></path>
    <path d="M469.312 426.688H512v42.688h-42.688zM298.688 469.312h42.688V512h-42.688z" fill="#E50046" p-id="10600"
          data-spm-anchor-id="a313x.collections_detail.0.i3.71533a81P8FZT6" class="selected"></path>
    <path d="M384 469.312h42.688V512H384zM426.688 469.312h42.688V512h-42.688z" fill="#FFF100" p-id="10601"></path>
    <path d="M512 384h42.688v42.688H512zM512 426.688h42.688v42.688H512z" fill="#E50046" p-id="10602"></path>
    <path d="M512 469.312h42.688V512H512z" fill="#E50046" p-id="10603"></path>
    <path d="M298.688 512h42.688v42.688h-42.688z" p-id="10604"></path>
    <path d="M384 512h42.688v42.688H384z" fill="#E50046" p-id="10605"></path>
    <path d="M426.688 512h42.688v42.688h-42.688z" fill="#FFF100" p-id="10606"></path>
    <path d="M554.688 384h42.688v42.688h-42.688zM554.688 426.688h42.688v42.688h-42.688z" fill="#E50046" p-id="10607"
          data-spm-anchor-id="a313x.collections_detail.0.i7.71533a81P8FZT6" class="selected"></path>
    <path d="M597.312 384H640v42.688h-42.688zM597.312 426.688H640v42.688h-42.688z" fill="#E50046" p-id="10608"></path>
    <path d="M597.312 469.312H640V512h-42.688zM554.688 512h42.688v42.688h-42.688z" fill="#E50046" p-id="10609"></path>
    <path d="M597.312 512H640v42.688h-42.688z" fill="#E50046" p-id="10610"></path>
    <path d="M298.688 554.688h42.688v42.688h-42.688z" p-id="10611"></path>
    <path d="M384 554.688h42.688v42.688H384z" fill="#E50046" p-id="10612"></path>
    <path d="M426.688 554.688h42.688v42.688h-42.688z" fill="#FFF100" p-id="10613"></path>
    <path d="M298.688 597.312h42.688V640h-42.688z" p-id="10614"></path>
    <path d="M426.688 597.312h42.688V640h-42.688z" fill="#E50046" p-id="10615"></path>
    <path d="M512 554.688h42.688v42.688H512z" fill="#FFF100" p-id="10616"></path>
    <path d="M512 597.312h42.688V640H512z" fill="#FFF100" p-id="10617"></path>
    <path d="M256 640h42.688v42.688H256z" p-id="10618"></path>
    <path d="M298.688 640h42.688v42.688h-42.688z" fill="#FFFFFF" p-id="10619"></path>
    <path d="M341.312 640H384v42.688h-42.688z" p-id="10620"></path>
    <path d="M384 640h42.688v42.688H384zM426.688 640h42.688v42.688h-42.688z" fill="#E50046" p-id="10621"></path>
    <path d="M469.312 640H512v42.688h-42.688zM512 640h42.688v42.688H512zM597.312 554.688H640v42.688h-42.688z"
          fill="#E50046" p-id="10622"></path>
    <path d="M597.312 597.312H640V640h-42.688zM554.688 640h42.688v42.688h-42.688z" fill="#FFF100" p-id="10623"></path>
    <path d="M597.312 640H640v42.688h-42.688z" fill="#FFF100" p-id="10624"></path>
    <path d="M213.312 682.688H256v42.688h-42.688z" p-id="10625"></path>
    <path d="M256 682.688h42.688v42.688H256zM298.688 682.688h42.688v42.688h-42.688z" fill="#FFFFFF" p-id="10626"></path>
    <path d="M341.312 682.688H384v42.688h-42.688z" fill="#E3E7E6" p-id="10627"></path>
    <path d="M384 682.688h42.688v42.688H384zM426.688 682.688h42.688v42.688h-42.688z" p-id="10628"></path>
    <path d="M469.312 682.688H512v42.688h-42.688z" p-id="10629"></path>
    <path d="M512 682.688h42.688v42.688H512zM554.688 682.688h42.688v42.688h-42.688z" fill="#E50046" p-id="10630"></path>
    <path d="M597.312 682.688H640v42.688h-42.688z" fill="#E50046" p-id="10631"></path>
    <path d="M170.688 725.312h42.688V768h-42.688zM341.312 725.312H384V768h-42.688zM128 768h42.688v42.688H128zM512 725.312h42.688V768H512zM554.688 725.312h42.688V768h-42.688z"
          p-id="10632"></path>
    <path d="M213.312 768H256v42.688h-42.688z" fill="#FFFFFF" p-id="10633"></path>
    <path d="M256 768h42.688v42.688H256z" fill="#E3E7E6" p-id="10634"></path>
    <path d="M298.688 768h42.688v42.688h-42.688z" p-id="10635"></path>
    <path d="M170.688 810.688h42.688v42.688h-42.688z" fill="#FFFFFF" p-id="10636"></path>
    <path d="M213.312 810.688H256v42.688h-42.688z" fill="#E3E7E6" p-id="10637"></path>
    <path d="M256 810.688h42.688v42.688H256z" p-id="10638"></path>
    <path d="M85.312 853.312H128V896h-42.688zM128 853.312h42.688V896H128z" fill="#FFFFFF" p-id="10639"></path>
    <path d="M170.688 853.312h42.688V896h-42.688z" fill="#E3E7E6" p-id="10640"></path>
    <path d="M213.312 853.312H256V896h-42.688z" p-id="10641"></path>
    <path d="M42.688 896h42.688v42.688H42.688z" fill="#FFFFFF" p-id="10642"></path>
    <path d="M85.312 896H128v42.688h-42.688z" fill="#FFFFFF" p-id="10643"></path>
    <path d="M128 896h42.688v42.688H128z" fill="#E3E7E6" p-id="10644"></path>
    <path d="M170.688 896h42.688v42.688h-42.688z" p-id="10645"></path>
    <path d="M42.688 938.688h42.688v42.688H42.688z" fill="#E3E7E6" p-id="10646"></path>
    <path d="M85.312 938.688H128v42.688h-42.688z" fill="#E3E7E6" p-id="10647"></path>
    <path d="M128 938.688h42.688v42.688H128zM597.312 725.312H640V768h-42.688zM42.688 853.312h42.688V896H42.688zM341.312 128H384v42.688h-42.688z"
          p-id="10648"></path>
    <path d="M384 128h42.688v42.688H384z" fill="#FFF100" p-id="10649"></path>
    <path d="M426.688 128h42.688v42.688h-42.688z" fill="#E50046" p-id="10650"></path>
    <path d="M469.312 128H512v42.688h-42.688z" fill="#E50046" p-id="10651"></path>
    <path d="M256 341.312h42.688V384H256z" p-id="10652"></path>
    <path d="M298.688 341.312h42.688V384h-42.688z" fill="#E50046" p-id="10653"></path>
    <path d="M341.312 341.312H384V384h-42.688z" fill="#E50046" p-id="10654"></path>
    <path d="M384 341.312h42.688V384H384zM426.688 341.312h42.688V384h-42.688z" fill="#FFF100" p-id="10655"
          data-spm-anchor-id="a313x.collections_detail.0.i2.71533a81P8FZT6" class="selected"></path>
    <path d="M469.312 341.312H512V384h-42.688z" fill="#FFF100" p-id="10656"></path>
    <path d="M512 0h42.688v42.688H512z" p-id="10657"></path>
    <path d="M512 128h42.688v42.688H512zM512 341.312h42.688V384H512z" fill="#E50046" p-id="10658"></path>
    <path d="M554.688 0h42.688v42.688h-42.688z" p-id="10659"></path>
    <path d="M554.688 128h42.688v42.688h-42.688zM554.688 341.312h42.688V384h-42.688z" fill="#E50046"
          p-id="10660"></path>
    <path d="M597.312 0H640v42.688h-42.688z" p-id="10661"></path>
    <path d="M597.312 128H640v42.688h-42.688zM597.312 341.312H640V384h-42.688z" fill="#E50046" p-id="10662"
          data-spm-anchor-id="a313x.collections_detail.0.i5.71533a81P8FZT6"></path>
    <path d="M640 0h42.688v42.688H640z" p-id="10663"></path>
    <path d="M640 128h42.688v42.688H640zM640 298.688h42.688v42.688H640z" fill="#E50046" p-id="10664"></path>
    <path d="M640 341.312h42.688V384H640zM640 384h42.688v42.688H640z" fill="#E50046" p-id="10665"></path>
    <path d="M640 426.688h42.688v42.688H640z" fill="#FFF100" p-id="10666"></path>
    <path d="M640 469.312h42.688V512H640z" fill="#FFF100" p-id="10667"></path>
    <path d="M640 512h42.688v42.688H640zM640 554.688h42.688v42.688H640z" fill="#E50046" p-id="10668"></path>
    <path d="M640 597.312h42.688V640H640zM640 640h42.688v42.688H640z" fill="#FFF100" p-id="10669"></path>
    <path d="M682.688 0h42.688v42.688h-42.688z" p-id="10670"></path>
    <path d="M682.688 128h42.688v42.688h-42.688z" fill="#E50046" p-id="10671"></path>
    <path d="M682.688 256h42.688v42.688h-42.688zM682.688 341.312h42.688V384h-42.688z" fill="#FFF100"
          p-id="10672"></path>
    <path d="M725.312 0H768v42.688h-42.688z" p-id="10673"></path>
    <path d="M725.312 128H768v42.688h-42.688z" fill="#FFF100" p-id="10674"></path>
    <path d="M725.312 213.312H768V256h-42.688z" fill="#E50046" p-id="10675"></path>
    <path d="M725.312 341.312H768V384h-42.688z" fill="#FFF100" p-id="10676"></path>
    <path d="M853.312 85.312H896V128h-42.688z" p-id="10677"></path>
    <path d="M853.312 128H896v42.688h-42.688z" fill="#E50046" p-id="10678"></path>
    <path d="M896 128h42.688v42.688H896z" p-id="10679"></path>
    <path d="M896 170.688h42.688v42.688H896z" fill="#E50046" p-id="10680"></path>
    <path d="M938.624 170.688h42.688v42.688h-42.688z" p-id="10681"></path>
    <path d="M938.624 213.312h42.688V256h-42.688zM981.312 256H1024v42.688h-42.688z" p-id="10682"></path>
    <path d="M768 128h42.688v42.688H768zM768 170.688h42.688v42.688H768z" fill="#FFF100" p-id="10683"></path>
    <path d="M768 341.312h42.688V384H768zM640 682.688h42.688v42.688H640z" fill="#E50046" p-id="10684"></path>
    <path d="M640 725.312h42.688V768H640zM810.688 42.688h42.688v42.688h-42.688z" p-id="10685"></path>
    <path d="M810.624 85.312h42.688V128h-42.688z" fill="#E50046" p-id="10686"></path>
    <path d="M810.688 128h42.688v42.688h-42.688z" fill="#FFF100" p-id="10687"></path>
    <path d="M810.688 341.312h42.688V384h-42.688z" fill="#E50046" p-id="10688"></path>
    <path d="M853.312 170.688H896v42.688h-42.688zM853.312 341.312H896V384h-42.688zM896 213.312h42.688V256H896zM896 341.312h42.688V384H896z"
          fill="#FFF100" p-id="10689"></path>
    <path d="M938.624 256h42.688v42.688h-42.688zM938.624 341.312h42.688V384h-42.688z" fill="#E50046"
          p-id="10690"></path>
    <path d="M981.312 298.688H1024v42.688h-42.688z" p-id="10691"></path>
    <path d="M981.312 341.312H1024V384h-42.688zM981.312 384H1024v42.688h-42.688zM981.312 426.688H1024v42.688h-42.688z"
          p-id="10692"></path>
    <path d="M981.312 469.312H1024V512h-42.688zM0 896h42.688v42.688H0zM0 938.688h42.688v42.624H0zM42.688 981.312h42.688V1024H42.688z"
          p-id="10693"></path>
    <path d="M85.312 981.312H128V1024h-42.688zM256 469.312h42.688V512H256z" p-id="10694"></path>
    <path d="M341.312 469.312H384V512h-42.688z" fill="#E50046" p-id="10695"></path>
    <path d="M469.312 469.312H512V512h-42.688z" fill="#FFF100" p-id="10696"></path>
    <path d="M341.312 512H384v42.688h-42.688z" fill="#E50046" p-id="10697"></path>
    <path d="M469.312 512H512v42.688h-42.688z" fill="#FFF100" p-id="10698"></path>
    <path d="M512 512h42.688v42.688H512zM554.688 469.312h42.688V512h-42.688zM341.312 554.688H384v42.688h-42.688z"
          fill="#E50046" p-id="10699"></path>
    <path d="M469.312 554.688H512v42.688h-42.688z" fill="#FFF100" p-id="10700"></path>
    <path d="M341.312 597.312H384V640h-42.688zM384 597.312h42.688V640H384z" fill="#E50046" p-id="10701"></path>
    <path d="M469.312 597.312H512V640h-42.688zM554.688 554.688h42.688v42.688h-42.688z" fill="#FFF100"
          p-id="10702"></path>
    <path d="M554.688 597.312h42.688V640h-42.688z" fill="#FFF100" p-id="10703"></path>
    <path d="M213.312 725.312H256V768h-42.688zM256 725.312h42.688V768H256z" fill="#FFFFFF" p-id="10704"></path>
    <path d="M298.688 725.312h42.688V768h-42.688z" fill="#E3E7E6" p-id="10705"></path>
    <path d="M170.688 768h42.688v42.688h-42.688z" fill="#FFFFFF" p-id="10706"></path>
    <path d="M85.312 810.688H128v42.688h-42.688z" p-id="10707"></path>
    <path d="M128 810.688h42.688v42.688H128z" fill="#FFFFFF" p-id="10708"></path>
</svg>
