<svg t="1721208850895" class="icon" viewBox="0 0 1024 1024" version="1.1" xmlns="http://www.w3.org/2000/svg" p-id="9332" width="200" height="200"><path d="M128 112m64 0l256 0q64 0 64 64l0 256q0 64-64 64l-256 0q-64 0-64-64l0-256q0-64 64-64Z" fill="#4799FE" p-id="9333"></path><path d="M544 112m64 0l256 0q64 0 64 64l0 256q0 64-64 64l-256 0q-64 0-64-64l0-256q0-64 64-64Z" fill="#4799FE" p-id="9334"></path><path d="M208 192m24 0l16 0q24 0 24 24l0 112q0 24-24 24l-16 0q-24 0-24-24l0-112q0-24 24-24Z" fill="#FFFFFF" p-id="9335"></path><path d="M208 192m24 0l112 0q24 0 24 24l0 16q0 24-24 24l-112 0q-24 0-24-24l0-16q0-24 24-24Z" fill="#FFFFFF" p-id="9336"></path><path d="M128 528m64 0l256 0q64 0 64 64l0 256q0 64-64 64l-256 0q-64 0-64-64l0-256q0-64 64-64Z" fill="#4799FE" p-id="9337"></path><path d="M544 528m64 0l256 0q64 0 64 64l0 256q0 64-64 64l-256 0q-64 0-64-64l0-256q0-64 64-64Z" fill="#4799FE" opacity=".51" p-id="9338"></path></svg>