<svg t="1695975695381" class="icon" viewBox="0 0 1024 1024" version="1.1" xmlns="http://www.w3.org/2000/svg" p-id="3900" width="200" height="200"><path d="M723.968 959.9488c-20.1728 0-40.4992-4.864-59.2384-14.7456l-120.2176-63.232a65.62304 65.62304 0 0 0-61.0304 0l-120.2176 63.232c-43.1104 22.6816-94.3616 18.944-133.7856-9.6768s-58.7776-76.2368-50.5344-124.2112l22.9888-133.888c3.6352-21.2992-3.3792-42.9568-18.8416-58.0608l-97.28-94.8224c-34.8672-33.9968-47.2064-83.8656-32.1536-130.2016S107.9808 314.88 156.2112 307.9168l134.4-19.5584c21.3504-3.1232 39.8336-16.4864 49.3568-35.8912l60.1088-121.8048C421.6832 87.04 465.3056 59.904 513.9968 59.904s92.3648 27.136 113.92 70.8096l60.1088 121.8048c9.5744 19.3536 28.0064 32.768 49.3568 35.8912l134.4512 19.5584c48.1792 7.0144 87.5008 40.1408 102.5536 86.4256s2.7136 96.2048-32.1536 130.2016l-97.28 94.8224c-15.4624 15.0528-22.528 36.7616-18.8416 58.0608l22.9888 133.888c8.2432 48.0256-11.1104 95.5904-50.5344 124.2112-22.3232 16.128-48.384 24.3712-74.5984 24.3712zM513.9968 121.344c-25.5488 0-47.5136 13.6704-58.7776 36.5568L395.0592 279.7056A126.96576 126.96576 0 0 1 299.4176 349.184l-134.4 19.5584c-25.2416 3.6864-45.056 20.3776-52.9408 44.6464-7.8848 24.2688-1.6896 49.408 16.5888 67.2256l97.28 94.8224c29.952 29.184 43.5712 71.2192 36.5056 112.4352l-22.9888 133.888c-4.3008 25.1392 5.4272 49.152 26.112 64.1536 20.6336 15.0016 46.4384 16.8448 69.0688 4.9664l120.2176-63.232c37.0176-19.456 81.2032-19.456 118.2208 0L693.2992 890.88c22.5792 11.8784 48.384 10.0352 69.0688-4.9664 20.6336-15.0016 30.4128-38.9632 26.112-64.1536l-22.9888-133.888a127.10912 127.10912 0 0 1 36.5056-112.4352l97.28-94.8224c18.2784-17.8176 24.4736-42.9568 16.5888-67.2256s-27.6992-40.96-52.9408-44.6464L728.576 349.184a127.0528 127.0528 0 0 1-95.6416-69.4784l-60.1088-121.8048c-11.3152-22.8864-33.28-36.5568-58.8288-36.5568z" fill="#474A54" p-id="3901"></path><path d="M513.9968 549.3248m-126.1056 0a126.1056 126.1056 0 1 0 252.2112 0 126.1056 126.1056 0 1 0-252.2112 0Z" fill="#ffa115" p-id="3902"></path><path d="M513.9968 706.1504c-86.4768 0-156.8256-70.3488-156.8256-156.8256s70.3488-156.8256 156.8256-156.8256 156.8256 70.3488 156.8256 156.8256-70.3488 156.8256-156.8256 156.8256z m0-252.2624c-52.5824 0-95.3856 42.8032-95.3856 95.3856s42.8032 95.3856 95.3856 95.3856 95.3856-42.8032 95.3856-95.3856-42.752-95.3856-95.3856-95.3856z" fill="#474A54" p-id="3903"></path></svg>