<svg t="1696317251619" class="icon" viewBox="0 0 1024 1024" version="1.1" xmlns="http://www.w3.org/2000/svg" p-id="4162" width="200" height="200"><path d="M775.2192 784.7936h-115.2c-6.4 0-12.544 2.5088-17.152 6.9632l-113.7152 110.1824a24.704 24.704 0 0 1-34.3552 0l-113.7152-110.1824c-4.608-4.4544-10.752-6.9632-17.152-6.9632h-115.2c-78.6432 0-142.336-63.744-142.336-142.336v-93.952h811.2128v93.952c0 78.592-63.744 142.336-142.3872 142.336z" fill="#ffa115" p-id="4163"></path><path d="M512 939.6736c-13.8752 0-27.7504-5.2224-38.5536-15.7184L361.472 815.5136H248.7808c-95.4368 0-173.056-77.6704-173.056-173.056V266.8544c0-95.4368 77.6704-173.056 173.056-173.056h526.4896c95.4368 0 173.056 77.6192 173.056 173.056v375.552c0 95.4368-77.6704 173.056-173.056 173.056H662.528l-111.9744 108.4928a55.13216 55.13216 0 0 1-38.5536 15.7184zM248.7808 155.2384c-61.5424 0-111.616 50.0736-111.616 111.616v375.552c0 61.5424 50.0736 111.616 111.616 111.616h115.2c14.4896 0 28.16 5.5296 38.5536 15.616L512 875.776l109.5168-106.0864c10.3936-10.0864 24.064-15.616 38.5536-15.616h115.2c61.5424 0 111.616-50.0736 111.616-111.616V266.8544c0-61.5424-50.0736-111.616-111.616-111.616H248.7808z" fill="#474A54" p-id="4164"></path><path d="M731.9552 396.544h-444.416c-16.9472 0-30.72-13.7728-30.72-30.72s13.7728-30.72 30.72-30.72h444.4672c16.9472 0 30.72 13.7728 30.72 30.72s-13.7728 30.72-30.7712 30.72zM550.2464 578.56H287.5392c-16.9472 0-30.72-13.7728-30.72-30.72s13.7728-30.72 30.72-30.72h262.7584c16.9472 0 30.72 13.7728 30.72 30.72s-13.7728 30.72-30.7712 30.72z" fill="#474A54" p-id="4165"></path></svg>