<svg t="1696142735227" class="icon" viewBox="0 0 1462 1024" version="1.1" xmlns="http://www.w3.org/2000/svg" p-id="5479" width="200" height="200"><path d="M1389.714286 146.285714H438.857143a73.142857 73.142857 0 0 1 0-146.285714h950.857143a73.142857 73.142857 0 0 1 0 146.285714zM731.428571 585.142857H438.857143a73.142857 73.142857 0 0 1 0-146.285714h292.571428a73.142857 73.142857 0 0 1 0 146.285714zM1389.714286 1024H438.857143a73.142857 73.142857 0 0 1 0-146.285714h950.857143a73.142857 73.142857 0 0 1 0 146.285714zM146.285714 146.285714H73.142857a73.142857 73.142857 0 0 1 0-146.285714h73.142857a73.142857 73.142857 0 0 1 0 146.285714zM146.285714 585.142857H73.142857a73.142857 73.142857 0 0 1 0-146.285714h73.142857a73.142857 73.142857 0 0 1 0 146.285714zM146.285714 1024H73.142857a73.142857 73.142857 0 0 1 0-146.285714h73.142857a73.142857 73.142857 0 0 1 0 146.285714z" fill="#333333" p-id="5480"></path></svg>