<svg t="1702555730982" class="icon" viewBox="0 0 1024 1024" version="1.1" xmlns="http://www.w3.org/2000/svg" p-id="6489" width="200" height="200"><path d="M918.507 443.947H104.64c-37.547 0-68.16 30.72-68.16 68.16 0 37.546 30.72 68.16 68.16 68.16h813.867c37.546 0 68.16-30.72 68.16-68.16s-30.72-68.16-68.16-68.16z m-0.32 306.88H104.32c-37.547 0-68.16 30.72-68.16 68.16 0 37.546 30.72 68.16 68.16 68.16h813.867c37.546 0 68.16-30.72 68.16-68.16 0-37.547-30.614-68.16-68.16-68.16z m1.066-610.667H105.387c-37.547 0-68.16 30.72-68.16 68.16 0 37.547 30.72 68.16 68.16 68.16h813.866c37.547 0 68.16-30.72 68.16-68.16 0-37.547-30.72-68.16-68.16-68.16z" fill="#555555" p-id="6490"></path></svg>