<svg t="1695970172208" class="icon" viewBox="0 0 1024 1024" version="1.1" xmlns="http://www.w3.org/2000/svg" p-id="3421" width="200" height="200"><path d="M229.888 506.112l237.3632 227.2256-256.8704 21.1456z" fill="#ffa115" p-id="3422"></path><path d="M226.9696 801.3824c-16.3328 0-32.1024-6.5536-43.6736-18.2784a61.42464 61.42464 0 0 1-17.5104-46.7968l10.9056-174.0288c0.9216-14.8992 7.2704-28.928 17.8176-39.4752l410.7264-410.7264c44.1344-44.1344 115.9168-44.1344 160 0l92.4672 92.4672c44.1344 44.1344 44.1344 115.9168 0 160l-410.5216 410.5216a61.07136 61.07136 0 0 1-40.448 17.8688l-176.9472 8.3456c-0.9216 0.1024-1.8944 0.1024-2.816 0.1024z m458.2912-660.992c-13.2608 0-26.4704 5.0176-36.5568 15.104l-410.7264 410.7264-10.8544 173.9264 176.6912-8.5504 410.4704-410.4704c20.1728-20.1728 20.1728-52.9408 0-73.1136l-92.4672-92.4672a51.6096 51.6096 0 0 0-36.5568-15.1552zM903.3216 933.2736H122.88c-16.9472 0-30.72-13.7728-30.72-30.72s13.7728-30.72 30.72-30.72h780.4416c16.9472 0 30.72 13.7728 30.72 30.72s-13.7728 30.72-30.72 30.72z" fill="#474A54" p-id="3423"></path><path d="M675.6864 291.9424m-41.1136 0a41.1136 41.1136 0 1 0 82.2272 0 41.1136 41.1136 0 1 0-82.2272 0Z" fill="#474A54" p-id="3424"></path></svg>