<svg t="1696318565011" class="icon" viewBox="0 0 1024 1024" version="1.1" xmlns="http://www.w3.org/2000/svg" p-id="784" data-spm-anchor-id="a313x.manage_type_mylikes.0.i0.188f3a81XVRLky" width="200" height="200"><path d="M512 1024c282.752 0 512-229.248 512-512S794.752 0 512 0 0 229.248 0 512s229.248 512 512 512z m0-85.333333C276.352 938.666667 85.333333 747.648 85.333333 512S276.352 85.333333 512 85.333333s426.666667 191.018667 426.666667 426.666667-191.018667 426.666667-426.666667 426.666667z" fill="#FFA115" p-id="785" data-spm-anchor-id="a313x.manage_type_mylikes.0.i1.188f3a81XVRLky" class="selected"></path><path d="M512 512m-85.333333 0a85.333333 85.333333 0 1 0 170.666666 0 85.333333 85.333333 0 1 0-170.666666 0Z" fill="#FFFFFF" p-id="786"></path><path d="M320 405.333333m-64 0a64 64 0 1 0 128 0 64 64 0 1 0-128 0Z" fill="#666666" p-id="787"></path><path d="M704 405.333333m-64 0a64 64 0 1 0 128 0 64 64 0 1 0-128 0Z" fill="#666666" p-id="788"></path><path d="M234.666667 576c42.666667 170.666667 135.125333 256 277.333333 256s234.666667-85.333333 277.333333-256h-554.666666z" fill="#E01313" p-id="789"></path></svg>