<svg t="1695819016758" class="icon" viewBox="0 0 1024 1024" version="1.1" xmlns="http://www.w3.org/2000/svg" p-id="9849" width="200" height="200"><path d="M487.424 974.848c-8.704 0-17.408-2.048-25.6-6.656C358.4 912.384 232.448 899.072 87.04 883.2l-13.312-1.536c-33.28-3.072-58.368-30.72-58.368-64.512V276.48c0-35.328 29.184-65.024 65.024-66.048 163.84-2.56 306.688 26.624 424.448 87.552 21.504 10.752 35.328 33.792 35.328 57.856V921.6c0 18.944-9.728 36.352-26.112 46.08-8.192 4.608-17.408 7.168-26.624 7.168zM100.864 261.632h-19.456c-8.192 0-14.848 6.656-14.848 14.848v540.672c0 7.168 5.632 13.312 12.8 13.824l13.312 1.536c151.04 15.872 281.088 30.208 393.728 90.624h0.512c0.512 0.512 1.024 0.512 1.536 0 0.512-0.512 1.024-1.024 1.024-1.536V355.84c0-5.12-3.072-10.24-7.168-12.288-106.496-54.784-234.496-81.92-381.44-81.92z" p-id="9850"></path><path d="M544.256 973.312c-9.728 0-19.456-2.56-28.16-8.192-16.896-10.24-27.136-28.16-26.624-48.128V355.328c0-24.576 13.824-47.616 35.84-58.368 117.76-60.416 260.608-90.112 423.936-87.04 35.84 1.024 65.024 30.208 65.024 66.048v540.672c0 33.792-25.088 61.44-58.88 65.024l-20.992 2.56c-141.312 15.36-263.168 29.184-364.032 82.944-8.192 4.096-17.408 6.144-26.112 6.144zM928.768 261.12c-146.432 0-274.432 27.648-380.416 81.92-4.608 2.56-7.68 7.168-7.68 12.8v562.688c0 1.536 0.512 2.56 2.048 3.584 1.536 1.024 2.56 0.512 3.072 0h0.512c109.568-58.368 236.032-72.192 382.976-88.576l20.992-2.56c7.68-0.512 13.312-6.656 13.312-13.824V275.968c0-8.192-6.656-14.848-14.848-14.848h-19.968z" p-id="9851"></path><path d="M386.56 502.272c-3.072 0-6.656-0.512-9.728-2.048-67.584-27.136-136.704-40.96-204.288-40.96-14.336 0-25.6-11.264-25.6-25.6s11.264-25.6 25.6-25.6c74.24 0 149.504 14.848 223.744 45.056 13.312 5.12 19.456 19.968 14.336 33.28-4.096 9.728-13.824 15.872-24.064 15.872zM386.56 673.792c-3.072 0-6.656-0.512-9.728-2.048-67.584-27.136-136.704-40.96-204.288-40.96-14.336 0-25.6-11.264-25.6-25.6s11.264-25.6 25.6-25.6c74.24 0 149.504 14.848 223.744 45.056 13.312 5.12 19.456 19.968 14.336 33.28-4.096 9.728-13.824 15.872-24.064 15.872zM643.072 502.272c-10.24 0-19.968-6.144-23.552-15.872-5.12-13.312 1.024-28.16 14.336-33.28 73.728-29.696 148.992-45.056 223.744-45.056 14.336 0 25.6 11.264 25.6 25.6s-11.264 25.6-25.6 25.6c-68.096 0-136.704 13.824-204.288 40.96-3.584 1.536-7.168 2.048-10.24 2.048zM643.072 673.792c-10.24 0-19.968-6.144-23.552-15.872-5.12-13.312 1.024-28.16 14.336-33.28 73.728-29.696 148.992-45.056 223.744-45.056 14.336 0 25.6 11.264 25.6 25.6s-11.264 25.6-25.6 25.6c-68.096 0-136.704 13.824-204.288 40.96-3.584 1.536-7.168 2.048-10.24 2.048z" p-id="9852"></path></svg>