<svg t="1721210862378" class="icon" viewBox="0 0 1024 1024" version="1.1" xmlns="http://www.w3.org/2000/svg" p-id="15351" width="200" height="200"><path d="M853.333333 640a42.666667 42.666667 0 0 1 42.368 37.674667L896 682.666667v83.84c0 70.4-60.416 125.568-134.144 129.28L753.92 896H640a42.666667 42.666667 0 0 1-4.992-85.034667L640 810.666667h113.92c30.506667 0 53.674667-18.602667 56.448-39.850667l0.298667-4.266667V682.666667a42.666667 42.666667 0 0 1 42.666666-42.666667zM170.666667 640a42.666667 42.666667 0 0 1 42.368 37.674667L213.333333 682.666667v84.224c0 21.333333 20.736 40.96 49.408 43.52l6.272 0.256H384a42.666667 42.666667 0 0 1 4.992 85.034666L384 896H269.013333c-74.069333 0-136.533333-52.650667-140.8-121.642667L128 766.890667V682.666667a42.666667 42.666667 0 0 1 42.666667-42.666667zM754.773333 128c75.818667 0 137.002667 61.44 141.013334 137.941333L896 273.92V384a42.666667 42.666667 0 0 1-85.034667 4.992L810.666667 384V273.92c0-31.914667-22.613333-57.429333-50.602667-60.330667L754.773333 213.333333H640a42.666667 42.666667 0 0 1-4.992-85.034666L640 128h114.773333zM384 128a42.666667 42.666667 0 0 1 4.992 85.034667L384 213.333333H268.245333c-29.525333 0-51.754667 17.450667-54.613333 37.034667L213.333333 254.592V341.333333a42.666667 42.666667 0 0 1-85.034666 4.992L128 341.333333V254.592C128 185.6 187.733333 131.84 260.394667 128.213333L268.245333 128H384z" fill="#5D6E7F" p-id="15352"></path></svg>