<svg t="1696314281179" class="icon" viewBox="0 0 1024 1024" version="1.1" xmlns="http://www.w3.org/2000/svg" p-id="3687" width="200" height="200"><path d="M857.4976 483.1232H167.2704c-56.576 0-102.4-45.824-102.4-102.4v-18.3808c0-56.576 45.824-102.4 102.4-102.4h690.2272c56.576 0 102.4 45.824 102.4 102.4v18.3808c0 56.5248-45.824 102.4-102.4 102.4z" fill="#ffa115" p-id="3688"></path><path d="M862.0544 229.3248c10.9056-13.6192 19.8656-29.4912 23.4496-47.36 3.7888-18.7904 3.072-47.4112-21.76-77.2608-24.32-29.2352-61.5936-44.9536-105.472-43.9296-80.128 1.6896-173.1072 56.3712-247.7056 144.4352-74.6496-88.064-167.6288-142.7456-247.7568-144.4352-43.6224-0.9216-81.2032 14.6944-105.472 43.9296-24.7808 29.8496-25.4976 58.5216-21.76 77.2608 3.584 17.92 12.5952 33.8432 23.552 47.5136-69.632 4.2496-124.9792 62.1568-124.9792 132.864v18.3808c0 49.7152 27.392 93.0816 67.84 115.968v336.0256c0 68.352 55.6032 123.9552 123.9552 123.9552h577.6896c68.352 0 123.9552-55.6032 123.9552-123.9552v-338.944c37.7856-23.5008 62.976-65.3824 62.976-113.1008v-18.3808c0.0512-71.8336-57.1904-130.56-128.512-132.9664z m-102.5024-107.1616c17.408-0.4096 41.4208 3.1232 56.9344 21.76 10.0864 12.1344 9.8304 20.5312 8.8064 25.856-4.6592 23.552-40.704 49.408-57.4464 58.2656-0.6656 0.3584-1.3312 0.768-1.9456 1.1776h-194.7136c70.5536-76.8 143.5136-106.0864 188.3648-107.0592zM204.5952 143.9744c15.5136-18.6368 39.5264-22.2208 56.9344-21.76 44.8512 0.9216 117.8112 30.208 188.416 107.008H255.1808c-0.6144-0.4096-1.28-0.8192-1.9456-1.1264-16.7424-8.8064-52.7872-34.6624-57.4464-58.2656-1.0752-5.3248-1.28-13.7728 8.8064-25.856zM95.5904 362.3424c0-39.5264 32.1536-71.68 71.68-71.68h316.8256v161.7408H167.2704c-39.5264 0-71.68-32.1536-71.68-71.68v-18.3808z m67.8912 470.3232v-318.8224h320.6656v381.3376H225.9968c-34.5088 0-62.5152-28.0576-62.5152-62.5152z m702.72-318.8224v318.8224c0 34.4576-28.0576 62.5152-62.5152 62.5152h-258.1504v-381.3376h320.6656z m62.976-133.12c0 39.5264-32.1536 71.68-71.68 71.68h-311.9616V290.6624h311.9616c39.5264 0 71.68 32.1536 71.68 71.68v18.3808z" fill="#474A54" p-id="3689"></path></svg>