<svg t="1697795227382" class="icon" viewBox="0 0 1024 1024" version="1.1" xmlns="http://www.w3.org/2000/svg" p-id="841" width="200" height="200"><path d="M944.593455 370.036364a454.749091 454.749091 0 0 1 22.62109 142.056727c0 251.345455-203.729455 455.121455-455.121454 455.121454-13.358545 0-26.577455-0.558545-39.656727-1.675636l204.567272-346.298182c19.968-30.72 31.557818-67.351273 31.557819-106.728727a195.490909 195.490909 0 0 0-61.300364-142.429091zM136.378182 255.255273l202.333091 348.16a196.049455 196.049455 0 0 0 227.746909 97.652363l-151.179637 255.813819c-204.8-44.357818-358.260364-226.676364-358.260363-444.788364 0-95.278545 29.277091-183.761455 79.36-256.837818z m376.087273 114.781091a142.475636 142.475636 0 0 1 124.462545 211.921454l-1.210182 1.768727-3.770182 6.516364a142.429091 142.429091 0 0 1-242.129454-5.259636l-0.558546-1.256728-2.606545-4.375272a142.475636 142.475636 0 0 1 125.858909-209.361455z m-0.372364-313.018182a455.168 455.168 0 0 1 410.996364 259.397818h-410.577455a196.142545 196.142545 0 0 0-190.882909 150.993455L171.985455 209.687273a454.004364 454.004364 0 0 1 340.107636-152.669091z" fill="#515151" p-id="842"></path></svg>