<svg t="1696136712969" class="icon" viewBox="0 0 1024 1024" version="1.1" xmlns="http://www.w3.org/2000/svg" p-id="3567" width="200" height="200"><path d="M898.6 558.5c0 222.8-179.1 403.5-400 403.5s-400-180.6-400-403.5c0-103.3 25.3-173.9 62.1-238.8 31.3-55.3 75.9-102 117.2-122.9 53.5-27 49.6 102.9 101.1 64.9 85.1-62.6-11-237.5 64.4-220.3 121.8 27.8 161.4 155.3 190.8 169.3 62.1 29.5 49.2-121.8 151.7 7C898.6 359.1 898.6 471 898.6 558.5z" fill="#FF556E" p-id="3568"></path><path d="M504.2 66.5c-17.6-10.9-37.7-19.8-60.8-25-22.5-5.1-29.7 6.8-31 27.8 19.1-2.7 38.6-4 58.5-4 11.2-0.1 22.3 0.3 33.3 1.2zM885.2 411c4.4 24.4 6.7 49.5 6.7 75.2 0 232.5-188.5 421-421 421-126.4 0-239.8-55.7-316.9-143.9C223.5 882.3 351.8 962 498.6 962c220.9 0 400-180.6 400-403.5 0-43 0-92-13.4-147.5z" fill="#FF556E" p-id="3569"></path><path d="M565 120.7c-16.4-19.6-36.2-39-60.8-54.2-11-0.9-22.1-1.3-33.3-1.3-19.8 0-39.3 1.4-58.5 4-0.7 10.2 0.1 22.5 1.1 36 12.9-1.4 26.1-2.1 39.4-2.1 39.1 0 76.8 6.2 112.1 17.6zM470.8 907.2c232.5 0 421-188.5 421-421 0-25.7-2.3-50.8-6.7-75.2-13.9-57.3-42-121.5-99.2-193.3-60.5-76-80.8-54.4-100-30.1 79.7 66.6 130.3 166.8 130.3 278.8 0 200.7-162.7 363.3-363.3 363.3-172.7 0-317.3-120.5-354.2-282.1-0.1 3.6-0.1 7.2-0.1 10.9 0 74.8 20.2 144.8 55.3 204.8 77.2 88.2 190.6 143.9 316.9 143.9z" fill="#FF5F71" p-id="3570"></path><path d="M452.9 829.8c200.7 0 363.3-162.7 363.3-363.3 0-112-50.7-212.1-130.3-278.8-13.4 16.9-26.2 35.2-51.7 23.1-16.1-7.6-35.2-49.3-69.3-90-35.3-11.4-72.9-17.6-112-17.6-13.3 0-26.4 0.7-39.4 2.1 0.9 11.4 2 23.8 2.7 36.4 6.2-0.4 12.4-0.6 18.7-0.6 168.8 0 305.6 136.8 305.6 305.6S603.8 752.3 435 752.3 129.3 615.4 129.3 446.6c0-34.4 5.7-67.5 16.2-98.4-27.2 55.1-45.4 116.6-46.8 199.5 36.9 161.5 181.5 282.1 354.2 282.1z" fill="#FF6974" p-id="3571"></path><path d="M435 752.3c168.8 0 305.6-136.8 305.6-305.6S603.8 141 435 141c-6.3 0-12.5 0.2-18.7 0.6 0.7 12.3 1 24.9 0.3 37.3h0.5c136.9 0 248 111 248 248s-111 248-248 248-248-111-248-248c0-98.9 57.9-184.3 141.7-224.1-8.3-9.1-18.5-13.2-32.9-5.9-41.4 20.9-85.9 67.6-117.2 122.9-5.3 9.4-10.4 18.8-15.1 28.5-10.5 30.9-16.2 64-16.2 98.4-0.1 168.7 136.8 305.6 305.6 305.6z" fill="#FF7377" p-id="3572"></path><path d="M169.1 426.8c0 136.9 111 248 248 248s248-111 248-248-111-248-248-248h-0.5c-0.8 13.2-2.7 26.2-6.5 38.2 100 5.6 179.4 88.5 179.4 189.9 0 105.1-85.2 190.3-190.3 190.3S208.9 512.1 208.9 407c0-79.9 49.2-148.2 118.9-176.4-5.2-10.4-10.5-20.7-17-27.9-83.8 39.9-141.7 125.2-141.7 224.1z" fill="#FF7E7A" p-id="3573"></path><path d="M208.9 407c0 105.1 85.2 190.3 190.3 190.3S589.4 512.1 589.4 407c0-101.4-79.4-184.3-179.4-189.9-4.5 14.2-11.7 27.1-22.7 37.7 70.4 3.2 126.5 61.2 126.5 132.4 0 73.2-59.4 132.6-132.6 132.6s-132.6-59.4-132.6-132.6c0-60.6 40.7-111.7 96.3-127.5-6.4-7.3-11.6-18.2-17.1-29.1-69.7 28.2-118.9 96.6-118.9 176.4z" fill="#FF887D" p-id="3574"></path><path d="M248.6 387.3c0 73.2 59.4 132.6 132.6 132.6s132.6-59.4 132.6-132.6c0-71.2-56.1-129.3-126.5-132.4-2.5 2.4-5.3 4.7-8.2 6.9-15.3 11.2-25.7 7.8-34.2-2-55.6 15.7-96.3 66.8-96.3 127.5z" fill="#FF9280" p-id="3575"></path><path d="M434 58.3c1.5 0 3.3 0.2 5.4 0.7 34 7.8 64 24.6 91.6 51.4 24.1 23.4 42 50.2 56.3 71.7 14.9 22.3 25.7 38.5 39.2 44.9 7.9 3.8 15.7 5.7 23.2 5.7 23.7 0 37.6-17.6 48.7-31.8 8.5-10.8 14.5-17.9 20.1-17.9 5 0 20.3 4.5 53.3 45.9 108.7 136.5 108.7 243.6 108.7 329.7 0 52.1-10.1 102.6-30 150.1-19.2 45.9-46.8 87.1-81.9 122.5-35.1 35.4-75.9 63.2-121.4 82.6-47.1 20.1-97.1 30.3-148.6 30.3S397 933.8 350 913.8c-45.5-19.4-86.3-47.2-121.4-82.6-35.1-35.4-62.7-76.6-81.9-122.5-19.9-47.5-30-98-30-150.1 0-47.3 5.4-89.4 16.6-128.9 9.5-33.8 23.3-65.9 43.2-101 29.5-52.1 71.6-96.5 109.7-115.7 3.1-1.6 4.9-1.8 5.7-1.8 1.9 0 4.3 1.9 7.2 5.6 4.7 5.9 9.2 15 13.6 23.8 10.3 20.6 23.1 46.3 49 46.3 9.2 0 18.7-3.5 28.1-10.5 52.7-38.8 46.8-110.8 42.5-163.3-1.2-14.7-2.3-28.5-2-39.3 0.3-10.5 1.9-14.3 2.5-15.3 0.2-0.2 0.6-0.2 1.2-0.2m0-18c-57.4 0 26.2 161.8-54.9 221.5-6.7 4.9-12.4 7-17.5 7-30.3 0-36.1-75.7-69.9-75.7-4.2 0-8.7 1.1-13.8 3.7-41.4 20.9-85.9 67.6-117.2 122.9-36.8 64.9-62.1 135.5-62.1 238.8 0 222.8 179.1 403.5 400 403.5s400-180.6 400-403.5c0-87.6 0-199.4-112.6-340.9-31.6-39.6-52.2-52.6-67.5-52.6-29.7 0-38.9 49.7-68.8 49.7-4.6 0-9.7-1.2-15.5-3.9-29.4-14-69-141.4-190.8-169.3-3.5-0.8-6.6-1.2-9.4-1.2z" fill="#EF4868" p-id="3576"></path><path d="M698.6 563.1c0 109.3-89.5 198-200 198s-200-88.6-200-198c0-50.7 12.6-85.3 31-117.2 15.7-27.1 37.5-50.9 58.6-60.3 14-6.3 24.8 50.5 50.6 31.9 42.5-30.7 35.7-133.6 59.8-125.4 31.8 10.8 53.1 93.5 67.8 100.4 31.1 14.5 24.6-59.8 75.9 3.4 56.3 69.3 56.3 124.2 56.3 167.2z" fill="#FFC7C7" p-id="3577"></path><path d="M200 397.1c-2.7 0-5.5-0.6-8.1-1.9-8.9-4.5-12.4-15.3-7.9-24.2 33.9-66.8 75.7-108.2 77.4-109.9 7.1-7 18.5-6.8 25.5 0.3s6.8 18.5-0.3 25.4c-0.7 0.7-39.6 39.4-70.5 100.4-3.2 6.3-9.5 9.9-16.1 9.9zM173.4 463.2c-1.9 0-3.9-0.3-5.9-1-9.4-3.2-14.4-13.5-11.1-22.9l3.7-10.6c3.2-9.4 13.5-14.4 22.9-11.1 9.4 3.2 14.4 13.5 11.1 22.9l-3.7 10.6c-2.6 7.4-9.6 12.1-17 12.1z" fill="#FFFFFF" p-id="3578"></path></svg>