<svg t="1697630911074" class="icon" viewBox="0 0 1024 1024" version="1.1" xmlns="http://www.w3.org/2000/svg" p-id="5298" width="200" height="200"><path d="M948.4 407.2c-29.2-35.5-76.9-35.5-92.6-35.5H730c10.2-55.2 18.9-119.4 0.2-187.1-12.8-46.6-36.3-79.7-72-101.1-18.7-11.2-38.1-16.9-57.8-16.9-51.8 0-90.6 38.4-96.4 95.7-2.2 21.4-4.2 41.7-9.3 59.1-19 63.9-65.4 112.7-108.3 151.8-16 14.4-33.1 40.2-33.3 69.2-0.6 77.6-0.7 155.5-0.7 235.1l-0.1 141.4c-0.2 47.3 25 85.4 67 101.7 22.2 9 45.7 14 70.1 14.7 38.8 0.5 77.8 0.5 114.3 0.5h56.9c37.2 0 74.4 0 111.8 0.4h1.2c43.5 0 77.7-21.7 93.9-59.5l4.8-11.1c11.3-26 22.9-52.9 30.1-82.8 22-90.9 44.9-188.2 63.4-283.8 7.4-37.9 1.6-68.8-17.4-91.8zM216.1 374.5h-11.9c-56.2 0-101.9 45.7-101.9 101.9v348.4c0 56.2 45.7 101.9 101.9 101.9h11.9c56.2 0 101.9-45.7 101.9-101.9V476.4c0.1-56.2-45.7-101.9-101.9-101.9z" fill="#333333" p-id="5299"></path></svg>