<svg t="1695877320950" class="icon" viewBox="0 0 1024 1024" version="1.1" xmlns="http://www.w3.org/2000/svg" p-id="3579" width="200" height="200"><path d="M175.2064 904.96h106.8544V415.3344H175.2064c-41.5232 0-75.2128 33.6896-75.2128 75.2128v339.2512c0 41.5232 33.6896 75.1616 75.2128 75.1616z" fill="#ffa115" p-id="3580"></path><path d="M949.9136 416.3584c-21.1456-28.1088-53.504-44.2368-88.6784-44.2368h-174.7456c-3.072 0-4.7104-1.8944-5.4784-3.0208-1.1264-1.7408-1.28-3.5328-0.4608-5.2736 42.5984-92.0064 24.832-165.3248 10.4448-200.8064-17.3056-42.6496-46.6944-74.6496-80.7424-87.7056-37.0688-14.2336-71.0144-14.1312-100.864 0.4096-46.2848 22.4768-80.5888 76.6976-111.1552 175.7184-13.1584 42.5472-46.08 79.36-97.8432 109.5168a82.0224 82.0224 0 0 1-41.3184 11.1616H181.76c-61.184 0-111.0016 49.7664-111.0016 111.0016v362.496c0 61.184 49.7664 111.0016 111.0016 111.0016h575.3856c49.2032 0 93.0816-33.024 106.6496-80.3328l104.1408-362.496c9.728-33.792 3.1232-69.3248-18.0224-97.4336zM132.1984 845.6704v-362.496c0-27.3408 22.2208-49.5616 49.5616-49.5616h73.3184v455.4752c0 2.0992 0.2048 4.1472 0.6144 6.144H181.76c-27.3408 0-49.5616-22.2208-49.5616-49.5616z m776.704-348.8256l-104.1408 362.496c-6.0928 21.0944-25.6512 35.84-47.616 35.84H315.8528c0.4096-1.9968 0.6144-4.0448 0.6144-6.144V430.1312c0-2.816-0.4096-5.5296-1.1264-8.0896 5.4784-2.3552 10.8032-4.9664 15.9744-7.9872 65.536-38.144 107.8272-86.784 125.6448-144.4864 24.1152-78.1312 50.7904-124.7744 79.3088-138.5984 9.0112-4.4032 24.2176-8.96 51.968 1.6896 17.664 6.8096 35.2768 27.2896 45.8752 53.4528 10.6496 26.2656 23.6032 80.9472-9.2672 151.9104-9.6256 20.7872-7.936 44.7488 4.4544 64.1536 12.544 19.6608 33.9456 31.3856 57.2416 31.3856h174.7456c15.7184 0 30.1056 7.2192 39.5776 19.7632a49.38752 49.38752 0 0 1 8.0384 43.52z" fill="#474A54" p-id="3581"></path></svg>