<svg t="1695818653982" class="icon" viewBox="0 0 1024 1024" version="1.1" xmlns="http://www.w3.org/2000/svg" p-id="1391" width="200" height="200"><path d="M611.1 928.8c-11.4 0-22.9-3.1-33.2-9.4l-344-209.1h-79.1c-49.6 0-90-40.4-90-90V404.8c0-49.6 40.4-90 90-90H234l344.2-207.3c20-12 44.1-12.4 64.4-0.9s32.5 32.3 32.5 55.6v702.6c0 23.4-12.2 44.2-32.6 55.7-10 5.6-20.7 8.3-31.4 8.3z m-456.3-554c-16.5 0-30 13.5-30 30v215.5c0 16.5 13.5 30 30 30h95.9l358.4 217.8c0.5 0.3 2 1.2 3.9 0.1 2-1.1 2-2.8 2-3.4V162.2c0-0.6 0-2.3-2-3.4s-3.4-0.3-3.9 0.1L250.6 374.8h-95.8z m614.4 287.5c37.3-37.9 58.7-92.1 58.7-148.7 0-57.1-21.8-111.6-59.7-149.6-11.7-11.7-30.7-11.7-42.4 0s-11.7 30.7 0 42.4c26.8 26.8 42.1 65.9 42.1 107.3 0 40.9-15.1 79.8-41.5 106.6-11.6 11.8-11.5 30.8 0.4 42.4 5.8 5.7 13.4 8.6 21 8.6 7.8 0 15.5-3 21.4-9z m27.9 163.1c100.4-62.5 162.7-182 162.7-311.7 0-130.7-63.1-250.6-164.6-312.8-14.1-8.7-32.6-4.2-41.3 9.9-8.7 14.1-4.2 32.6 9.9 41.3 83.9 51.4 136 151.7 136 261.6 0 109.1-51.5 209.1-134.5 260.7-14.1 8.8-18.4 27.3-9.6 41.3 5.7 9.1 15.5 14.1 25.5 14.1 5.5 0.1 11-1.4 15.9-4.4z" p-id="1392"></path></svg>