<svg t="1696316564149" class="icon" viewBox="0 0 1024 1024" version="1.1" xmlns="http://www.w3.org/2000/svg" p-id="4002" width="200" height="200"><path d="M608.8192 667.136m-146.0736 0a146.0736 146.0736 0 1 0 292.1472 0 146.0736 146.0736 0 1 0-292.1472 0Z" fill="#ffa115" p-id="4003"></path><path d="M762.88 60.4672H246.0672c-73.4208 0-133.12 59.6992-133.12 133.12v634.4704c0 73.4208 59.6992 133.12 133.12 133.12h258.4064c16.9472 0 30.72-13.7728 30.72-30.72s-13.7728-30.72-30.72-30.72H246.0672c-39.5264 0-71.68-32.1536-71.68-71.68V193.5872c0-39.5264 32.1536-71.68 71.68-71.68H762.88c39.5264 0 71.68 32.1536 71.68 71.68v318.6176c0 16.9472 13.7728 30.72 30.72 30.72s30.72-13.7728 30.72-30.72V193.5872c0-73.4208-59.6992-133.12-133.12-133.12z" fill="#474A54" p-id="4004"></path><path d="M267.8784 303.616h477.7984c16.9472 0 30.72-13.7728 30.72-30.72s-13.7728-30.72-30.72-30.72H267.8784c-16.9472 0-30.72 13.7728-30.72 30.72s13.7728 30.72 30.72 30.72zM507.7504 451.9936c0-16.9472-13.7728-30.72-30.72-30.72H267.8784c-16.9472 0-30.72 13.7728-30.72 30.72s13.7728 30.72 30.72 30.72h209.152c16.9472 0 30.72-13.7728 30.72-30.72zM267.8784 600.6784c-16.9472 0-30.72 13.7728-30.72 30.72s13.7728 30.72 30.72 30.72h65.9968c16.9472 0 30.72-13.7728 30.72-30.72s-13.7728-30.72-30.72-30.72H267.8784zM751.0528 772.0448c21.7088-29.3888 34.6112-65.6384 34.6112-104.9088 0-97.4848-79.3088-176.7936-176.7936-176.7936s-176.7936 79.3088-176.7936 176.7936 79.3088 176.7936 176.7936 176.7936c36.096 0 69.6832-10.9056 97.6896-29.5424l93.1328 94.8736c5.9904 6.144 13.9776 9.216 21.9136 9.216 7.7824 0 15.5648-2.9184 21.504-8.8064 12.0832-11.8784 12.288-31.3344 0.4096-43.4688l-92.4672-94.1568zM493.4656 667.136c0-63.5904 51.7632-115.3536 115.3536-115.3536s115.3536 51.7632 115.3536 115.3536-51.7632 115.3536-115.3536 115.3536-115.3536-51.7632-115.3536-115.3536z" fill="#474A54" p-id="4005"></path></svg>