<svg t="1721212481221" class="icon" viewBox="0 0 1024 1024" version="1.1" xmlns="http://www.w3.org/2000/svg" p-id="16414" width="200" height="200"><path d="M896 149.333333H646.186667a179.413333 179.413333 0 0 0-68.906667 13.866667 187.306667 187.306667 0 0 0-30.08 16.426667 157.013333 157.013333 0 0 0-26.026667 21.333333c-3.2 3.2-6.186667 6.4-9.173333 9.813333-2.986667-3.413333-5.973333-6.613333-9.173333-9.813333a157.013333 157.013333 0 0 0-26.026667-21.333333 187.306667 187.306667 0 0 0-30.08-16.426667A179.413333 179.413333 0 0 0 377.813333 149.333333H128a85.333333 85.333333 0 0 0-85.333333 85.333334v129.066666a42.666667 42.666667 0 0 0 85.333333 0V234.666667h249.813333a91.306667 91.306667 0 0 1 18.56 1.92 83.2 83.2 0 0 1 17.066667 5.333333 91.306667 91.306667 0 0 1 15.573333 8.32 93.013333 93.013333 0 0 1 24.746667 24.746667 91.306667 91.306667 0 0 1 8.32 15.573333 83.2 83.2 0 0 1 5.333333 17.066667 91.306667 91.306667 0 0 1 1.92 18.56V469.333333a42.666667 42.666667 0 0 0 85.333334 0v-143.146666a91.306667 91.306667 0 0 1 1.92-18.56 83.2 83.2 0 0 1 5.333333-17.066667 91.306667 91.306667 0 0 1 8.32-15.573333 102.186667 102.186667 0 0 1 24.746667-24.746667 91.306667 91.306667 0 0 1 15.573333-8.32 83.2 83.2 0 0 1 17.066667-5.333333 91.306667 91.306667 0 0 1 18.56-1.92H896v510.72H597.333333a42.666667 42.666667 0 0 0-34.133333 16.853333 61.44 61.44 0 0 1-4.693333 5.76 58.24 58.24 0 0 1-5.333334 4.906667 39.68 39.68 0 0 1-5.973333 4.48 36.053333 36.053333 0 0 1-6.186667 3.626666 36.906667 36.906667 0 0 1-6.613333 2.986667l-7.04 2.346667-7.253333 1.28a61.653333 61.653333 0 0 1-15.36 0l-7.253334-1.28-6.826666-1.066667-6.613334-2.773333a112.853333 112.853333 0 0 1-12.16-8.106667l-5.333333-5.12a61.44 61.44 0 0 1-4.693333-5.76A42.666667 42.666667 0 0 0 426.666667 746.666667H128v-192a42.666667 42.666667 0 0 0-85.333333 0v192a85.333333 85.333333 0 0 0 85.333333 85.333333h280.106667l8.106666 7.466667a122.24 122.24 0 0 0 13.44 10.026666 128 128 0 0 0 14.72 8.746667c4.906667 2.56 10.24 4.906667 15.573334 7.04s10.88 3.626667 16.64 5.12a122.88 122.88 0 0 0 17.28 3.2A168.96 168.96 0 0 0 512 874.666667a161.706667 161.706667 0 0 0 17.92 0 120.32 120.32 0 0 0 17.493333-3.2q8.533333-2.346667 16.64-5.12c5.333333-2.133333 10.666667-4.48 15.786667-7.04a145.493333 145.493333 0 0 0 14.506667-8.746667 122.24 122.24 0 0 0 13.44-10.026667l8.106666-7.466666H896a85.333333 85.333333 0 0 0 85.333333-85.333334V234.666667a85.333333 85.333333 0 0 0-85.333333-85.333334z" fill="#5D6E7F" p-id="16415"></path></svg>