<svg t="1695966468597" class="icon" viewBox="0 0 1024 1024" version="1.1" xmlns="http://www.w3.org/2000/svg" p-id="1225" width="200" height="200"><path d="M520.16 848.85a102 102 0 0 1-41.16-8.64l-99.16-43.73c-0.49-0.21-1-0.44-1.45-0.69a10.43 10.43 0 0 0-9.6 0l-79.24 41a60.42 60.42 0 0 1-88.16-53.68V274.37A109.49 109.49 0 0 1 310.78 165h418.38a109.5 109.5 0 0 1 109.37 109.37v508.34a60.42 60.42 0 0 1-88.44 53.53l-77.27-40.44a10.46 10.46 0 0 0-9.6 0c-0.47 0.25-1 0.47-1.43 0.69L560.87 840.4a102.1 102.1 0 0 1-40.71 8.45zM400.67 751l98.52 43.45a52.11 52.11 0 0 0 41.72 0.09l100.28-43.67a60.51 60.51 0 0 1 54.81 0.62l77.27 40.44a10.43 10.43 0 0 0 15.26-9.23V274.37A59.43 59.43 0 0 0 729.16 215H310.78a59.43 59.43 0 0 0-59.37 59.37v508.68a10.42 10.42 0 0 0 15.2 9.26l79.25-40.95a60.5 60.5 0 0 1 54.81-0.36z" fill="#1296db" p-id="1226" data-spm-anchor-id="a313x.collections_detail.0.i3.79b43a81pC6guu" class="selected"></path><path d="M673.57 368.28h-307.2a25 25 0 0 1 0-50h307.2a25 25 0 0 1 0 50zM673.57 494.44h-307.2a25 25 0 0 1 0-50h307.2a25 25 0 0 1 0 50zM528 621.58H366.51a25 25 0 0 1 0-50H528a25 25 0 0 1 0 50z" fill="#1296db" p-id="1227" data-spm-anchor-id="a313x.collections_detail.0.i2.79b43a81pC6guu" class="selected"></path></svg>