<svg t="1695967800639" class="icon" viewBox="0 0 1024 1024" version="1.1" xmlns="http://www.w3.org/2000/svg" p-id="3244" width="200" height="200"><path d="M956.915826 484.47273l-105.340577 106.496578c-8.706131 8.344881-22.758767 8.344881-31.392648 0l-104.690327-106.496578c-12.354759-14.594511-4.082128-19.760389 4.551753-28.213646h95.911946c-26.515769-143.59698-152.194736-252.47781-303.522473-252.47781-117.081211 0-218.84541 65.025048-271.262823 160.936993l-52.309039-20.91639c60.94292-116.539335 182.828759-196.158894 323.571862-196.158894 182.467509 0 333.144994 133.879348 360.202639 308.616101h79.800184c8.597756 8.453256 13.113385 19.83264 4.479503 28.213646z m-751.1838-22.614267l105.340577 106.388203c8.706131 8.453256 4.190503 19.83264-4.551753 28.285896H215.341283c36.666902 129.43597 155.698864 224.372539 297.056092 224.372539 107.544204 0 202.191773-54.98229 257.463064-138.358851l52.850914 21.097015c-64.302547 103.895576-179.071756 173.400127-310.313978 173.400127-172.605376 0-316.527482-119.826713-354.531009-280.51083H74.164679c-8.633881-8.453256-16.906512-13.691385-4.443378-28.285896l104.618077-106.388203c8.633881-8.453256 22.686517-8.453256 31.392648 0z" fill="#333333" p-id="3245"></path></svg>