<svg t="1695976494548" class="icon" viewBox="0 0 1024 1024" version="1.1" xmlns="http://www.w3.org/2000/svg" p-id="8722" width="200" height="200"><path d="M908.488 821.348L783.7 696.56a401.635 401.635 0 0 1-41.665 48.894 403.103 403.103 0 0 1-35.653 31.68l123.159 123.159c10.855 10.854 25.117 16.282 39.376 16.283 14.262 0.002 28.518-5.427 39.376-16.283l0.188-0.188c10.524-10.524 16.316-24.508 16.316-39.382s-5.792-28.858-16.309-39.375z" fill="#2FBC3C" p-id="8723"></path><path d="M932.967 796.868L803.1 667.001a399.223 399.223 0 0 0 24.478-48.428c20.821-49.225 31.377-101.505 31.377-155.386S848.398 357.024 827.578 307.8c-20.106-47.537-48.887-90.226-85.542-126.881s-79.344-65.435-126.88-85.542C565.931 74.557 513.651 64 459.769 64S353.607 74.557 304.382 95.377c-47.537 20.107-90.226 48.887-126.881 85.542S112.066 260.263 91.96 307.8c-20.82 49.225-31.377 101.504-31.377 155.386S71.139 569.348 91.96 618.573c20.106 47.537 48.887 90.226 85.542 126.881s79.344 65.435 126.881 85.542c49.225 20.82 101.504 31.377 155.386 31.377s106.162-10.557 155.386-31.377a398.173 398.173 0 0 0 62.736-33.395l127.172 127.172c17.605 17.605 40.727 26.407 63.852 26.406 23.126-0.001 46.256-8.805 63.864-26.413l0.188-0.188c17.057-17.056 26.45-39.734 26.45-63.855 0-24.121-9.393-46.799-26.45-63.855z m-24.674 103.425c-10.857 10.857-25.114 16.285-39.376 16.283-14.258-0.001-28.521-5.429-39.376-16.283L706.383 777.134a403.405 403.405 0 0 0 35.653-31.68 401.649 401.649 0 0 0 41.665-48.894l124.787 124.788c10.518 10.518 16.31 24.501 16.31 39.375s-5.792 28.858-16.316 39.382l-0.189 0.188zM459.769 98.619c101.891 0 194.152 42.018 260.37 109.635-9.882-11.269-20.787-22.236-32.792-32.835 185.143 163.447 180.59 397.176 31.458 546.309-64.921 64.921-146.438 99.985-230.202 104.893a367.842 367.842 0 0 1-28.834 1.133c-201.023 0-364.567-163.544-364.567-364.567S258.746 98.619 459.769 98.619z" fill="" p-id="8724"></path><path d="M224.978 245.35c-98.897 103.804-146.487 307.567-35.566 454.728 147.889 153.727 380.29 106.897 493.595-1.051 103.641-98.742 174.303-311.826 51.99-472.601-163.445-166.451-403.394-92.991-510.019 18.924z m96.27 358.446c-36.341-36.341-56.355-84.659-56.355-136.054 0-51.394 20.014-99.713 56.355-136.054 36.341-36.342 84.659-56.356 136.054-56.356s99.713 20.014 136.054 56.356c36.341 36.341 56.355 84.659 56.355 136.054 0 51.395-20.014 99.713-56.355 136.054s-84.659 56.355-136.054 56.355-99.713-20.014-136.054-56.355z" fill="#8BF268" p-id="8725"></path><path d="M459.769 827.754c9.704 0 19.319-0.385 28.834-1.133-105.408 6.176-214.373-35.409-298.313-125.378 11.822 15.535 25.415 30.434 40.917 44.508-169.676-150.365-178.062-387.067-28.93-536.199C347.102 64.727 571.707 56.258 734.25 225.45a338.221 338.221 0 0 0-14.111-17.196C653.921 140.637 561.66 98.619 459.769 98.619c-201.023 0-364.567 163.544-364.567 364.567s163.544 364.568 364.567 364.568z" fill="#8BF268" p-id="8726"></path><path d="M649.711 467.742c0-51.394-20.014-99.713-56.355-136.054-36.341-36.342-84.659-56.356-136.054-56.356s-99.713 20.014-136.054 56.356c-36.341 36.341-56.355 84.659-56.355 136.054 0 51.395 20.014 99.713 56.355 136.054s84.659 56.355 136.054 56.355 99.713-20.014 136.054-56.355 56.355-84.66 56.355-136.054z m-192.409 157.79c-87.006 0-157.791-70.784-157.791-157.791S370.295 309.95 457.302 309.95s157.791 70.784 157.791 157.791-70.785 157.791-157.791 157.791z" fill="" p-id="8727"></path><path d="M189.412 700.078C78.491 552.917 126.081 349.154 224.978 245.35c106.625-111.915 346.574-185.374 510.019-18.924-0.248-0.326-0.498-0.651-0.747-0.976C571.707 56.258 347.102 64.727 202.277 209.552 53.145 358.684 61.531 595.386 231.207 745.75c-15.502-14.074-29.095-28.973-40.917-44.508a439.694 439.694 0 0 1-7.684-8.445 344.242 344.242 0 0 0 6.806 7.281z" fill="#FFFFFF" p-id="8728"></path><path d="M734.997 226.426c122.313 160.775 51.651 373.859-51.99 472.601-113.305 107.948-345.706 154.778-493.595 1.051a343.975 343.975 0 0 1-6.805-7.28 445.765 445.765 0 0 0 7.684 8.445c83.939 89.97 192.905 131.554 298.313 125.378 83.764-4.908 165.281-39.972 230.202-104.893 149.132-149.132 153.685-382.862-31.458-546.309 12.005 10.598 22.91 21.566 32.792 32.835a337.686 337.686 0 0 1 14.111 17.196l0.746 0.976z" fill="#2FBC3C" p-id="8729"></path></svg>