<svg t="1696312915659" class="icon" viewBox="0 0 1024 1024" version="1.1" xmlns="http://www.w3.org/2000/svg" p-id="3528" width="200" height="200"><path d="M407.7056 734.0544l150.9888 81.408-80.3328 97.2288z" fill="#ffa115" p-id="3529"></path><path d="M920.576 87.9104c-20.5824-14.2336-46.8992-15.4112-68.6592-3.072L114.432 502.9376a71.424 71.424 0 0 0-36.3008 65.6384 71.424 71.424 0 0 0 42.0352 62.1056l236.3904 107.264 73.3184 184.1152a46.7456 46.7456 0 0 0 43.4688 29.4912c14.592 0 28.5696-6.8608 37.4784-18.7392l69.7344-93.2352 155.8016 70.7072c9.5232 4.3008 19.6096 6.4512 29.696 6.4512 11.6736 0 23.296-2.9184 33.9968-8.6528 19.9168-10.7008 33.3312-29.696 36.864-52.0192L947.712 151.04c3.7888-24.6784-6.5536-48.896-27.136-63.1296zM139.4688 565.8112c-0.1024-2.3552 0.4096-6.7072 5.2224-9.4208l673.9456-382.0544-446.464 503.296-226.6112-102.8096c-5.0176-2.3552-5.9904-6.656-6.0928-9.0112z m337.7664 309.248l-39.9872-100.4544 85.9648 39.0144-45.9776 61.44z m298.9056-28.5184c-0.7168 4.4032-3.6352 6.6048-5.3248 7.4752-1.6896 0.8704-5.12 2.1504-9.1648 0.3072l-330.9568-150.1696 446.976-503.808-101.5296 646.1952z" fill="#474A54" p-id="3530"></path></svg>