<svg t="1745548264676" class="icon" viewBox="0 0 1024 1024" version="1.1" xmlns="http://www.w3.org/2000/svg" p-id="1976" width="200" height="200"><path d="M523.654 923.72c-15.883-0.001-30.761-6.136-41.893-17.273L121.813 546.259c-23.291-23.305-22.946-61.57 0.766-85.301l301.732-301.927c21.521-21.533 50.003-33.499 80.199-33.691l340.867-2.172c15.945 0 30.866 6.178 42.014 17.397 11.16 11.231 17.25 26.221 17.147 42.208l-2.17 340.697c-0.192 30.228-12.153 58.736-33.679 80.276L566.957 905.674c-11.628 11.638-27.006 18.046-43.301 18.046h-0.002z" fill="#FFFFFF" p-id="1977"></path><path d="M845.378 148.167c9.236 0 17.858 3.558 24.278 10.02 6.433 6.474 9.943 15.149 9.884 24.427l-2.171 340.698c-0.148 23.27-9.757 46.146-26.362 62.763l-301.736 301.93c-6.905 6.91-16.003 10.715-25.618 10.715-9.201 0-17.797-3.532-24.207-9.945l-359.95-360.188c-13.552-13.561-13.208-35.972 0.766-49.957l301.733-301.927c16.597-16.607 39.441-26.216 62.675-26.364l340.46-2.171 0.248-0.001m0-50l-0.552 0.002-340.475 2.171c-36.559 0.233-71.708 14.988-97.723 41.018L104.895 443.287c-33.503 33.529-33.848 87.541-0.765 120.645l359.95 360.187c16.4 16.411 37.941 24.602 59.574 24.602 22 0 44.095-8.468 60.987-25.374l301.733-301.928c26.015-26.032 40.762-61.205 40.994-97.789l2.171-340.697c0.299-46.929-37.333-84.766-84.161-84.766z" fill="#1A1A1A" p-id="1978"></path><path d="M630.465 212.491c95.862 0 173.57 77.708 173.57 173.572 0 95.858-77.708 173.572-173.57 173.572-95.86 0-173.572-77.713-173.572-173.572 0.001-95.864 77.712-173.572 173.572-173.572z" fill="#FFCD36" p-id="1979"></path></svg>