<svg t="1695970792212" class="icon" viewBox="0 0 1024 1024" version="1.1" xmlns="http://www.w3.org/2000/svg" p-id="3581" width="200" height="200"><path d="M773.376 176.7424a426.10176 426.10176 0 0 1 55.1936 210.176c0 236.3392-191.5904 427.9296-427.9296 427.9296-99.5328 0-191.0784-34.0992-263.7824-91.0848 73.4208 129.9456 212.7872 217.7536 372.736 217.7536 236.3392 0 427.9296-191.5904 427.9296-427.9296 0-136.8064-64.256-258.5088-164.1472-336.8448z" fill="#ffa115" p-id="3582"></path><path d="M509.5936 972.1856c-252.8768 0-458.6496-205.7216-458.6496-458.6496s205.7216-458.6496 458.6496-458.6496 458.6496 205.7216 458.6496 458.6496-205.7216 458.6496-458.6496 458.6496z m0-855.8592c-219.0336 0-397.2096 178.176-397.2096 397.2096s178.176 397.2096 397.2096 397.2096 397.2096-178.176 397.2096-397.2096-178.176-397.2096-397.2096-397.2096z" fill="#474A54" p-id="3583"></path><path d="M700.4672 735.1808c-7.8848 0-15.7184-3.0208-21.7088-9.0112l-190.8736-190.8736a30.65344 30.65344 0 0 1-9.0112-21.7088V270.2336c0-16.9472 13.7728-30.72 30.72-30.72s30.72 13.7728 30.72 30.72v230.6048l181.9136 181.9136a30.72 30.72 0 0 1-21.76 52.4288z" fill="#474A54" p-id="3584"></path></svg>