<svg t="1709103154913" class="icon" viewBox="0 0 1132 1024" version="1.1" xmlns="http://www.w3.org/2000/svg" p-id="6424" width="200" height="200"><path d="M1128.682305 549.728815c0 248.230122-239.0778 467.176362-533.974121 467.176362s-533.885436-218.94624-533.885436-467.176362S299.794126 100.395932 594.708184 100.395932s533.974121 201.120497 533.974121 449.332883z" fill="#A5CDD3" p-id="6425"></path><path d="M1089.2883 380.144806s94.698151-291.579491 2.252606-357.47266-339.558232 97.465132-339.558232 97.465132M103.107893 380.144806S8.409742 88.565315 100.855287 22.672146 440.413519 120.137278 440.413519 120.137278" fill="#A5CDD3" p-id="6426"></path><path d="M541.497011 1024c-143.138055 0-278.897495-50.532877-382.286804-142.286677-49.663762-44.041114-88.685288-94.893259-116.10678-151.155205C14.724135 672.451517 0.428066 611.613409 0.428066 549.728815c0-122.172853 56.439318-236.949354 158.924037-323.222402 102.129978-85.953782 237.836206-133.205303 382.144908-133.205304s279.961718 47.251522 382.144907 133.205304c102.484719 86.273049 158.924037 201.049549 158.924037 323.222402 0 61.884594-14.367017 122.722702-42.693098 180.829303-27.421491 56.261947-66.478492 107.114091-116.089042 151.155205-103.389309 91.753799-239.148749 142.286677-382.286804 142.286677z m0-916.59793c-290.515268 0-526.790613 198.424464-526.790613 442.326745 0 249.400768 241.223984 460.081539 526.879298 460.081539s526.790613-210.680771 526.790613-460.081539c0-243.90228-236.275345-442.238059-526.879298-442.23806z" fill="#333333" p-id="6427"></path><path d="M1042.888157 382.41515l-13.497901-4.381054c0.230582-0.727219 23.661235-73.413682 35.474116-153.035333 15.5554-103.318361 4.913165-171.269029-30.560951-196.544337s-103.921421-16.850205-197.448926 24.725459a1049.572651 1049.572651 0 0 0-134.074419 72.88157l-7.839779-11.848355c10.269756-6.775556 252.291908-165.256166 347.64633-97.323235 95.496319 68.128039 4.22142 353.339926 0.30153 365.525285zM43.08569 382.41515c-3.937627-12.096673-95.194789-297.308561 0.390215-365.383389s337.323363 90.547679 347.646331 97.323236l-7.822043 11.848354a1051.967154 1051.967154 0 0 0-134.251789-72.952518C155.609584 11.728381 87.375123 3.214593 51.759111 28.596323S5.554076 121.680402 21.056264 225.069711c11.901566 79.621652 35.296745 152.148481 35.474116 152.8757z" fill="#333333" p-id="6428"></path><path d="M488.551894 658.527926a94.857784 60.305996 0 1 0 189.715569 0 94.857784 60.305996 0 1 0-189.715569 0Z" fill="#FFFFFF" p-id="6429"></path><path d="M547.935563 725.928746c-26.605587 0-51.84542-6.669134-70.948231-18.765807-20.025138-12.735207-31.057588-30.011102-31.057588-48.635013s11.03245-35.882068 31.057588-48.617275c19.0496-12.11441 44.218485-18.783544 70.948231-18.783544s51.84542 6.669134 70.94823 18.783544c20.042875 12.735207 31.075325 29.993365 31.075325 48.617275s-11.03245 35.899805-31.075325 48.635013c-19.138285 12.096673-44.271696 18.765807-70.94823 18.765807z m0-120.611993c-48.40443 0-87.762961 23.87408-87.762962 53.211173s39.358531 53.211173 87.762962 53.211174 87.762961-23.87408 87.762961-53.211174-39.376268-53.211173-87.762961-53.211173z" fill="#333333" p-id="6430"></path><path d="M412.708235 803.191369a91.310373 91.310373 0 0 1-85.439407-58.177549 7.094823 7.094823 0 1 1 13.196371-5.196958 77.617364 77.617364 0 0 0 149.842663-28.379292 7.094823 7.094823 0 0 1 14.189646 0 91.895696 91.895696 0 0 1-91.789273 91.753799zM682.950046 803.191369a91.895696 91.895696 0 0 1-91.789274-91.789274 7.094823 7.094823 0 0 1 14.189646 0 77.617364 77.617364 0 0 0 149.842664 28.379293 7.094823 7.094823 0 1 1 13.196371 5.196958 91.310373 91.310373 0 0 1-85.439407 58.213023z" fill="#333333" p-id="6431"></path><path d="M244.862458 391.177256a89.465719 83.346434 0 1 0 178.931438 0 89.465719 83.346434 0 1 0-178.931438 0Z" fill="#FFFFFF" p-id="6432"></path><path d="M348.23403 386.601095m-36.857606 0a36.857606 36.857606 0 1 0 73.715212 0 36.857606 36.857606 0 1 0-73.715212 0Z" fill="#4FA9C9" p-id="6433"></path><path d="M681.087655 391.177256a89.465719 83.346434 0 1 0 178.931438 0 89.465719 83.346434 0 1 0-178.931438 0Z" fill="#FFFFFF" p-id="6434"></path><path d="M754.323966 386.601095m-36.857606 0a36.857606 36.857606 0 1 0 73.715212 0 36.857606 36.857606 0 1 0-73.715212 0Z" fill="#4FA9C9" p-id="6435"></path><path d="M9.066013 591.53506a74.442431 25.151148 0 1 0 148.884862 0 74.442431 25.151148 0 1 0-148.884862 0Z" fill="#333333" p-id="6436"></path><path d="M28.222036 682.668062a74.442431 24.05145 0 1 0 148.884862 0 74.442431 24.05145 0 1 0-148.884862 0Z" fill="#333333" p-id="6437"></path><path d="M65.966494 766.936823a74.442431 24.05145 0 1 0 148.884862 0 74.442431 24.05145 0 1 0-148.884862 0Z" fill="#333333" p-id="6438"></path><path d="M923.517759 591.53506a74.442431 25.151148 0 1 0 148.884862 0 74.442431 25.151148 0 1 0-148.884862 0Z" fill="#333333" p-id="6439"></path><path d="M904.361737 682.668062a74.442431 24.05145 0 1 0 148.884862 0 74.442431 24.05145 0 1 0-148.884862 0Z" fill="#333333" p-id="6440"></path><path d="M866.617278 766.936823a74.442431 24.05145 0 1 0 148.884862 0 74.442431 24.05145 0 1 0-148.884862 0Z" fill="#333333" p-id="6441"></path></svg>