<svg t="1709103478824" class="icon" viewBox="0 0 1421 1024" version="1.1" xmlns="http://www.w3.org/2000/svg" p-id="6916" width="200" height="200"><path d="M1265.144346 0H156.210042A156.210042 156.210042 0 0 0 0 156.210042v711.579916a156.210042 156.210042 0 0 0 156.210042 156.210042h1108.934304a156.210042 156.210042 0 0 0 156.210043-156.210042V156.210042A156.210042 156.210042 0 0 0 1265.144346 0zM422.944576 878.544117a212.218015 212.218015 0 0 1 0-424.43603v211.943274h211.943274a211.943273 211.943273 0 0 1-211.943274 212.492756z m39.248755-251.192028v-211.943273a211.943273 211.943273 0 0 1 211.943273 211.943273z m414.388348 229.9977a27.945113 27.945113 0 0 1-27.866616 27.945113h-25.82568a27.945113 27.945113 0 0 1-27.945113-27.945113v-360.303564a27.866616 27.866616 0 0 1 27.945113-27.866616h25.668685a27.866616 27.866616 0 0 1 27.866616 27.866616z m166.179226 0a27.945113 27.945113 0 0 1-27.866616 27.945113h-25.590188a27.945113 27.945113 0 0 1-27.866615-27.945113V602.782369a27.866616 27.866616 0 0 1 27.866615-27.866616h25.747183a27.866616 27.866616 0 0 1 27.866616 27.866616z m166.100728 0a27.945113 27.945113 0 0 1-27.866616 27.945113h-25.668685a27.945113 27.945113 0 0 1-27.945113-27.945113V526.325795a27.866616 27.866616 0 0 1 27.945113-27.866615h25.668685a27.866616 27.866616 0 0 1 27.866616 27.866615zM1282.021311 274.74128a45.37156 45.37156 0 0 1-45.37156 45.37156h-1051.866616A45.293062 45.293062 0 0 1 139.490073 274.74128V182.11422a45.293062 45.293062 0 0 1 45.293062-45.37156h1051.866616a45.37156 45.37156 0 0 1 45.37156 45.37156z" fill="#6596CF" p-id="6917"></path></svg>